<svg xmlns="http://www.w3.org/2000/svg" xmlns:xlink="http://www.w3.org/1999/xlink" id="Layer_1" x="0px" y="0px" viewBox="0 0 459.29 145.37" style="enable-background:new 0 0 459.29 145.37;" xml:space="preserve"><style type="text/css">	.st0{fill:#789923;}	.st1{fill:#88888A;}	.st2{fill:#58585A;}	.st3{fill:#4A513E;}	.st4{fill:#1A171B;}</style><path class="st0" d="M209.82,32.89h-9.28l-2.3,20.87c-0.4,3.62,1.64,4.42,4.91,4.42c1.24,0,2.58-0.17,3.91-0.17l-1.22,11.06  c-2.75,0.09-5.53,0.44-8.28,0.44c-12.82,0-15.69-3.72-14.32-16.19l2.25-20.43h-7.61l1.07-9.73h7.61l1.52-7.55l15.04-8.81  l-1.53,16.37h9.29L209.82,32.89z"></path><path class="st0" d="M208.8,37.31c0.93-6.01,4.19-9.91,8.51-12.29c4.32-2.3,9.72-3.18,14.95-3.18c10.88,0,21.14,2.39,19.71,15.39  l-2.21,20.08c-0.43,3.89-0.89,8.14,0.48,11.77h-15.13c-0.37-1.42-0.4-2.84-0.41-4.34c-4.34,4.07-10.27,5.66-15.75,5.66  c-8.76,0-15.17-4.42-14.13-13.89c1.64-14.95,17.79-13.8,28.45-15.92c2.62-0.53,4.14-1.41,4.45-4.24c0.38-3.45-3.64-4.78-6.73-4.78  c-4.16,0-7.01,1.86-8.15,5.75H208.8z M225.65,61.1c7.17,0,10-4.07,10.69-13.53c-2.27,1.32-6.19,1.59-9.56,2.48  c-3.45,0.79-6.44,2.21-6.84,5.84C219.53,59.6,222.29,61.1,225.65,61.1z"></path><path class="st0" d="M297.22,69.07h-14.33l0.58-5.31h-0.18c-3.39,4.34-8.07,6.64-13.38,6.64c-14.42,0-19.16-12.38-17.75-25.3  c1.3-11.95,8.92-23.27,21.92-23.27c5.66,0,9.76,2.12,12.41,6.28h0.17l2.43-13.83l15.04-8.38L297.22,69.07z M267.16,45.62  c-0.69,6.28,0.84,13.27,7.74,13.27c7.34,0,9.7-6.99,10.34-12.83c0.73-6.63-0.98-12.73-7.54-12.73  C270.8,33.33,267.79,39.78,267.16,45.62z"></path><polygon class="st0" points="306.42,23.16 321.46,23.16 316.42,69.07 301.38,69.07 "></polygon><path class="st0" d="M366.04,69.07h-14.59l0.68-6.28h-0.18c-3.34,4.69-9.5,7.61-14.8,7.61c-13.18,0-16.14-7.61-14.83-19.64  l3.03-27.6h15.04l-2.93,26.62c-0.67,6.11,1.75,8.23,6.53,8.23c3.27,0,8.46-2.12,9.35-10.26l2.7-24.59h15.03L366.04,69.07z"></path><path class="st0" d="M374.54,23.16h14.59l-0.69,6.27h0.17c3.25-4.6,8.44-7.6,14.02-7.6c5.75,0,10.68,1.86,12.54,7.43  c4.16-4.87,8.95-7.43,15.14-7.43c14.59,0,14.97,11.06,14.01,19.81l-3.01,27.42h-15.04l2.96-26.98c0.54-4.95-1.53-7.87-5.42-7.87  c-6.45,0-7.62,4.95-8.43,12.38l-2.46,22.48h-15.04l2.87-26.1c0.59-5.39-0.63-8.75-4.7-8.75c-5.39,0-8.03,3.09-9.06,12.47  l-2.45,22.38H369.5L374.54,23.16z"></path><path class="st0" d="M141.57,47.83c-0.47,7.43,3.87,9.82,10.86,9.82c4.95,0,10.27-1.77,10.79-6.46c0.61-5.57-8.3-6.63-17.12-9.2  c-8.74-2.56-17.76-6.63-16.49-18.22c1.52-13.8,15.99-19.19,27.85-19.19c12.56,0,24.54,0.81,23.06,15.05l-16.45,5.29  c0.9-5.75-4.3-7.61-9.34-7.61c-3.54,0-8.1,1.24-8.56,5.39c-0.53,4.86,8.48,5.75,17.39,8.32c8.83,2.56,17.57,6.81,16.31,18.22  c-1.75,16.01-15.94,21.15-29.82,21.15c-14.51,0-26.63-1.08-24.95-17.27L141.57,47.83z"></path><path class="st0" d="M141.92,97.01c-2.41,21.68-44.03,42.75-93.94,48.01l0.01-0.03c-0.38,0.06-0.76,0.12-1.15,0.15  c-9.65,1.02-17.46-1.47-17.46-5.58c0.01-4.1,7.82-8.26,17.46-9.27c0.39-0.04,0.78-0.08,1.16-0.1l-0.01-0.02  c40.52-4.33,74.26-21.47,76.23-39.08c2.02-18.13-30.39-29.92-72.45-26.41c0.24-0.03,0.5-0.04,0.75-0.07  C104.39,60.18,144.41,74.69,141.92,97.01z"></path><path class="st0" d="M27.33,54.07C29.09,38.32,59.3,23.02,95.52,19.2l0.01,0.02c0.27-0.04,0.56-0.08,0.84-0.11  c7-0.74,12.68,1.09,12.68,4.07c0,2.97-5.69,6-12.69,6.73c-0.28,0.03-0.56,0.05-0.83,0.07v0.01c-29.41,3.14-53.91,15.58-55.34,28.37  c-1.47,13.16,22.06,21.73,52.6,19.19c-0.18,0.01-0.37,0.03-0.54,0.04C54.58,80.81,25.52,70.27,27.33,54.07z"></path><g>	<path class="st1" d="M113.79,89.52c-1.81,16.26-33.03,32.07-70.45,36.01v-0.02c-0.27,0.04-0.57,0.08-0.86,0.12   c-7.24,0.76-13.11-1.12-13.1-4.2c0-3.08,5.87-6.19,13.1-6.96c0.3-0.03,0.59-0.06,0.86-0.07l0.01-0.02   c30.38-3.25,55.69-16.09,57.16-29.31c1.52-13.6-22.79-22.45-54.34-19.82c0.19-0.01,0.38-0.04,0.57-0.04   C85.65,61.9,115.67,72.78,113.79,89.52z"></path>	<path class="st1" d="M0.11,46.81C2.45,25.83,42.72,5.43,91.03,0.33l0,0.03c0.38-0.05,0.74-0.11,1.12-0.14   c9.34-0.99,16.9,1.42,16.91,5.4c0,3.97-7.57,7.99-16.91,8.98c-0.38,0.04-0.74,0.07-1.12,0.1l0,0.01   c-39.22,4.2-71.88,20.78-73.79,37.83c-1.95,17.55,29.43,28.97,70.14,25.58c-0.24,0.03-0.48,0.04-0.74,0.07   C36.44,82.46-2.3,68.42,0.11,46.81z"></path>	<g>		<polygon class="st2" points="321.7,19.99 306.66,19.99 307.52,14.4 323.22,6.94   "></polygon>		<polygon class="st3" points="321.7,19.99 306.66,19.99 307.52,14.4 323.22,6.94   "></polygon>		<path class="st2" d="M157.61,71.12h33.8l-0.97,8.85h-22.75l-0.81,7.42h15.98l-0.94,8.55h-15.97l-0.89,8.08h23.34l-1.04,9.5h-34.39    L157.61,71.12z"></path>		<path class="st2" d="M197.45,97.37l-8.2-14.67h11.17l3.53,7.36l5.14-7.36h10.69l-11.22,14.49l9.14,16.34h-11.17l-4.36-8.91    l-6.03,8.91h-11.16L197.45,97.37z"></path>		<path class="st2" d="M219.6,82.7h9.62l-0.39,3.56h0.12c2.28-2.91,5.43-4.45,8.99-4.45c9.68,0,12.86,8.31,11.91,16.98    c-0.88,8.02-5.99,15.62-14.72,15.62c-3.8,0-6.55-1.43-8.33-4.21h-0.12l-1.5,13.66h-10.1L219.6,82.7z M227.69,97.79    c-0.59,5.41,0.57,8.91,5.14,8.91c4.52,0,6.58-4.69,7.04-8.91c0.44-3.92-0.64-8.25-5.09-8.25    C232.04,89.53,228.39,91.43,227.69,97.79z"></path>		<path class="st2" d="M259.22,100.58c-0.28,4.22,1.85,7.01,6.13,7.01c2.43,0,4.93-1.13,6.13-3.39h9.45    c-2.63,7.13-9.56,10.22-16.45,10.22c-10.04,0-16.2-6.05-15.07-16.39c1.04-9.44,9.32-16.21,18.41-16.21    c11.04,0,15.65,8.31,14.03,18.77H259.22z M272.37,94.94c0.21-3.45-1.92-6.29-5.3-6.29c-3.56,0-6.22,2.55-7.23,6.29H272.37z"></path>		<path class="st2" d="M283.1,82.7h9.8l-0.58,5.41h0.12c1.91-3.93,5.58-6,9.92-6c0.77,0,1.6,0.06,2.35,0.24l-1.01,9.21    c-1.27-0.36-2.44-0.6-3.8-0.6c-4.99,0-7.98,3.44-8.41,7.3l-1.67,15.27h-10.09L283.1,82.7z"></path>		<polygon class="st2" points="305.62,82.7 315.71,82.7 312.34,113.53 302.24,113.53   "></polygon>		<polygon class="st2" points="315.77,80.32 305.68,80.32 306.19,77.42 316.63,72.6   "></polygon>		<path class="st2" d="M325.05,100.58c-0.29,4.22,1.84,7.01,6.11,7.01c2.44,0,4.94-1.13,6.14-3.39h9.44    c-2.62,7.13-9.55,10.22-16.44,10.22c-10.05,0-16.21-6.05-15.07-16.39c1.03-9.44,9.33-16.21,18.41-16.21    c11.05,0,15.66,8.31,14.04,18.77H325.05z M338.19,94.94c0.2-3.45-1.92-6.29-5.31-6.29c-3.56,0-6.22,2.55-7.22,6.29H338.19z"></path>		<path class="st2" d="M350.23,82.7h9.81l-0.47,4.22h0.12c2.19-3.15,6.56-5.11,10.24-5.11c10.28,0,10.28,7.48,9.79,11.94    l-2.17,19.78h-10.1l1.64-14.91c0.46-4.22,1.41-8.5-4.12-8.5c-3.8,0-5.82,3.21-6.19,6.6l-1.84,16.81h-10.1L350.23,82.7z"></path>		<path class="st2" d="M400.55,93.98c0.23-2.61-1.88-4.45-4.43-4.45c-5.64,0-7.06,4.81-7.54,9.09c-0.43,3.98,0.84,8.08,5.12,8.08    c3.5,0,5.51-2.02,6.33-5.29h9.81c-1.8,8.25-8.73,13.01-16.93,13.01c-9.27,0-15.46-6.35-14.42-15.8c1.07-9.8,8.08-16.81,18-16.81    c7.66,0,14.05,4.04,13.87,12.17H400.55z"></path>		<path class="st2" d="M419.14,100.58c-0.29,4.22,1.85,7.01,6.12,7.01c2.43,0,4.93-1.13,6.13-3.39h9.44    c-2.62,7.13-9.55,10.22-16.44,10.22c-10.04,0-16.2-6.05-15.08-16.39c1.04-9.44,9.33-16.21,18.42-16.21    c11.04,0,15.66,8.31,14.03,18.77H419.14z M432.29,94.94c0.2-3.45-1.92-6.29-5.31-6.29c-3.56,0-6.22,2.55-7.23,6.29H432.29z"></path>		<g>			<path class="st4" d="M135.41,133.46c-0.63-0.44-1.37-0.66-2.24-0.66c-0.74,0-1.37,0.14-1.89,0.41c-0.52,0.28-0.96,0.65-1.29,1.11     c-0.34,0.47-0.59,1-0.75,1.6c-0.16,0.6-0.24,1.22-0.24,1.87c0,0.7,0.08,1.37,0.24,1.99c0.16,0.63,0.41,1.17,0.75,1.64     c0.34,0.47,0.77,0.84,1.3,1.11c0.53,0.28,1.16,0.41,1.9,0.41c0.54,0,1.02-0.09,1.44-0.27c0.42-0.18,0.78-0.43,1.09-0.74     c0.3-0.32,0.54-0.69,0.72-1.13c0.17-0.44,0.28-0.91,0.31-1.42h1.64c-0.16,1.55-0.7,2.76-1.61,3.63     c-0.91,0.86-2.15,1.29-3.73,1.29c-0.96,0-1.79-0.16-2.5-0.49c-0.71-0.33-1.31-0.78-1.78-1.36c-0.47-0.58-0.83-1.25-1.06-2.04     c-0.24-0.78-0.35-1.62-0.35-2.52c0-0.9,0.13-1.74,0.38-2.53c0.25-0.79,0.62-1.48,1.11-2.06c0.49-0.59,1.1-1.05,1.83-1.39     c0.73-0.34,1.57-0.51,2.51-0.51c0.64,0,1.25,0.09,1.83,0.26c0.58,0.17,1.09,0.43,1.54,0.76c0.45,0.33,0.82,0.75,1.12,1.25     c0.3,0.5,0.5,1.08,0.59,1.74h-1.64C136.45,134.56,136.04,133.9,135.41,133.46z"></path>			<path class="st4" d="M139.68,135.46c0.25-0.78,0.62-1.46,1.11-2.06c0.49-0.6,1.11-1.08,1.85-1.43c0.74-0.36,1.59-0.54,2.57-0.54     s1.84,0.18,2.57,0.54c0.74,0.36,1.35,0.83,1.85,1.43c0.49,0.6,0.87,1.29,1.11,2.06c0.25,0.78,0.37,1.59,0.37,2.43     c0,0.84-0.12,1.65-0.37,2.43c-0.25,0.78-0.62,1.46-1.11,2.06c-0.5,0.6-1.11,1.07-1.85,1.42c-0.74,0.35-1.59,0.53-2.57,0.53     s-1.84-0.18-2.57-0.53c-0.74-0.35-1.35-0.83-1.85-1.42c-0.5-0.6-0.87-1.29-1.11-2.06c-0.25-0.78-0.37-1.59-0.37-2.43     C139.31,137.04,139.43,136.23,139.68,135.46z M141.19,139.72c0.16,0.6,0.41,1.15,0.76,1.63c0.35,0.48,0.79,0.87,1.33,1.17     c0.54,0.29,1.19,0.44,1.93,0.44c0.75,0,1.39-0.15,1.93-0.44c0.54-0.29,0.98-0.68,1.33-1.17c0.35-0.48,0.6-1.03,0.76-1.63     c0.16-0.6,0.24-1.22,0.24-1.84c0-0.62-0.08-1.23-0.24-1.84c-0.16-0.6-0.41-1.15-0.76-1.63c-0.35-0.48-0.79-0.87-1.33-1.17     c-0.54-0.29-1.19-0.44-1.93-0.44c-0.75,0-1.39,0.15-1.93,0.44c-0.54,0.29-0.98,0.68-1.33,1.17c-0.35,0.48-0.6,1.03-0.76,1.63     c-0.16,0.6-0.24,1.22-0.24,1.84C140.95,138.5,141.03,139.12,141.19,139.72z"></path>			<path class="st4" d="M154.42,131.72l6.49,10h0.03v-10h1.55v12.33h-1.8l-6.44-9.89h-0.03v9.89h-1.55v-12.33H154.42z"></path>			<path class="st4" d="M172.82,131.72v1.38h-6.46v3.92h5.66v1.38h-5.66v5.65h-1.64v-12.33H172.82z"></path>			<path class="st4" d="M182.71,131.72v1.38h-6.87v3.92h6.41v1.38h-6.41v4.27h6.92v1.38h-8.56v-12.33H182.71z"></path>			<path class="st4" d="M190.12,131.72c1.17,0,2.09,0.29,2.75,0.86c0.66,0.58,0.99,1.36,0.99,2.37c0,0.75-0.17,1.4-0.51,1.97     c-0.34,0.56-0.88,0.95-1.63,1.16v0.04c0.36,0.07,0.65,0.18,0.87,0.35c0.22,0.16,0.4,0.35,0.54,0.58     c0.13,0.22,0.23,0.47,0.29,0.75c0.06,0.28,0.11,0.56,0.15,0.86c0.02,0.3,0.04,0.6,0.05,0.91c0.01,0.31,0.04,0.62,0.09,0.92     c0.05,0.3,0.11,0.58,0.2,0.85c0.09,0.27,0.22,0.51,0.39,0.72h-1.83c-0.11-0.13-0.19-0.3-0.23-0.52     c-0.04-0.22-0.07-0.46-0.08-0.73c-0.01-0.27-0.02-0.56-0.03-0.87c-0.01-0.31-0.05-0.62-0.1-0.92c-0.05-0.3-0.1-0.58-0.17-0.85     c-0.07-0.27-0.18-0.51-0.33-0.71c-0.15-0.2-0.35-0.36-0.59-0.48c-0.24-0.12-0.56-0.18-0.97-0.18h-4.01v5.27h-1.64v-12.33H190.12z      M190.47,137.31c0.35-0.06,0.65-0.17,0.91-0.34c0.26-0.17,0.47-0.39,0.62-0.67c0.16-0.28,0.23-0.65,0.23-1.1     c0-0.62-0.17-1.13-0.52-1.52c-0.35-0.39-0.9-0.59-1.67-0.59h-4.08v4.3h3.42C189.76,137.4,190.12,137.37,190.47,137.31z"></path>			<path class="st4" d="M204.23,131.72v1.38h-6.87v3.92h6.41v1.38h-6.41v4.27h6.92v1.38h-8.56v-12.33H204.23z"></path>			<path class="st4" d="M207.56,131.72l6.49,10h0.03v-10h1.55v12.33h-1.8l-6.44-9.89h-0.03v9.89h-1.55v-12.33H207.56z"></path>			<path class="st4" d="M225.32,133.46c-0.63-0.44-1.37-0.66-2.24-0.66c-0.74,0-1.37,0.14-1.89,0.41c-0.52,0.28-0.96,0.65-1.29,1.11     c-0.34,0.47-0.59,1-0.75,1.6c-0.16,0.6-0.24,1.22-0.24,1.87c0,0.7,0.08,1.37,0.24,1.99c0.16,0.63,0.41,1.17,0.75,1.64     c0.34,0.47,0.77,0.84,1.3,1.11c0.53,0.28,1.16,0.41,1.9,0.41c0.54,0,1.02-0.09,1.44-0.27c0.42-0.18,0.78-0.43,1.09-0.74     c0.3-0.32,0.54-0.69,0.72-1.13c0.17-0.44,0.28-0.91,0.31-1.42h1.64c-0.16,1.55-0.7,2.76-1.6,3.63c-0.91,0.86-2.15,1.29-3.73,1.29     c-0.96,0-1.79-0.16-2.5-0.49c-0.71-0.33-1.31-0.78-1.78-1.36c-0.47-0.58-0.83-1.25-1.06-2.04c-0.24-0.78-0.35-1.62-0.35-2.52     c0-0.9,0.13-1.74,0.38-2.53c0.25-0.79,0.62-1.48,1.11-2.06c0.49-0.59,1.1-1.05,1.83-1.39c0.73-0.34,1.57-0.51,2.51-0.51     c0.64,0,1.25,0.09,1.83,0.26c0.58,0.17,1.09,0.43,1.54,0.76c0.45,0.33,0.82,0.75,1.12,1.25c0.3,0.5,0.49,1.08,0.59,1.74h-1.64     C226.35,134.56,225.94,133.9,225.32,133.46z"></path>			<path class="st4" d="M238.41,131.72v1.38h-6.87v3.92h6.41v1.38h-6.41v4.27h6.92v1.38h-8.56v-12.33H238.41z"></path>			<path class="st4" d="M249.55,131.72l4.82,12.33h-1.81l-1.35-3.71h-5.21l-1.38,3.71h-1.67l4.8-12.33H249.55z M250.69,138.95     l-2.05-5.75h-0.03l-2.09,5.75H250.69z"></path>			<path class="st4" d="M256.87,131.72l6.49,10h0.03v-10h1.55v12.33h-1.8l-6.44-9.89h-0.03v9.89h-1.55v-12.33H256.87z"></path>			<path class="st4" d="M271.41,131.72c1.9,0,3.36,0.48,4.39,1.45c1.02,0.97,1.54,2.44,1.54,4.42c0,1.04-0.12,1.95-0.34,2.75     c-0.23,0.8-0.59,1.47-1.07,2.02c-0.48,0.55-1.1,0.96-1.85,1.25c-0.75,0.29-1.63,0.43-2.66,0.43h-4.23v-12.33H271.41z      M271.55,142.67c0.18,0,0.42-0.01,0.69-0.04c0.28-0.03,0.57-0.1,0.88-0.21c0.31-0.11,0.62-0.27,0.92-0.47     c0.3-0.21,0.58-0.49,0.82-0.85c0.24-0.36,0.44-0.8,0.6-1.34c0.16-0.54,0.23-1.18,0.23-1.94c0-0.74-0.07-1.4-0.22-1.98     c-0.14-0.58-0.38-1.08-0.71-1.49c-0.33-0.41-0.75-0.72-1.27-0.93c-0.52-0.21-1.16-0.32-1.92-0.32h-2.76v9.57H271.55z"></path>			<path class="st4" d="M291.78,131.72v1.38h-6.87v3.92h6.41v1.38h-6.41v4.27h6.92v1.38h-8.56v-12.33H291.78z"></path>			<path class="st4" d="M296.38,144.05l-4.33-12.33h1.76l3.52,10.69h0.04l3.56-10.69h1.71l-4.39,12.33H296.38z"></path>			<path class="st4" d="M312.02,131.72v1.38h-6.87v3.92h6.41v1.38h-6.41v4.27h6.92v1.38h-8.56v-12.33H312.02z"></path>			<path class="st4" d="M315.35,131.72l6.49,10h0.03v-10h1.55v12.33h-1.8l-6.44-9.89h-0.03v9.89h-1.55v-12.33H315.35z"></path>			<path class="st4" d="M324.34,133.1v-1.38h9.86v1.38h-4.11v10.95h-1.64V133.1H324.34z"></path>			<path class="st4" d="M346.96,133.46c-0.63-0.44-1.37-0.66-2.24-0.66c-0.74,0-1.37,0.14-1.89,0.41c-0.52,0.28-0.96,0.65-1.29,1.11     c-0.34,0.47-0.59,1-0.75,1.6c-0.16,0.6-0.24,1.22-0.24,1.87c0,0.7,0.08,1.37,0.24,1.99c0.16,0.63,0.41,1.17,0.75,1.64     c0.34,0.47,0.77,0.84,1.3,1.11c0.53,0.28,1.16,0.41,1.9,0.41c0.54,0,1.02-0.09,1.44-0.27c0.42-0.18,0.78-0.43,1.09-0.74     c0.31-0.32,0.54-0.69,0.72-1.13c0.17-0.44,0.28-0.91,0.31-1.42h1.64c-0.16,1.55-0.7,2.76-1.61,3.63     c-0.91,0.86-2.15,1.29-3.73,1.29c-0.96,0-1.79-0.16-2.5-0.49c-0.71-0.33-1.31-0.78-1.78-1.36c-0.47-0.58-0.83-1.25-1.06-2.04     c-0.24-0.78-0.35-1.62-0.35-2.52c0-0.9,0.13-1.74,0.38-2.53c0.25-0.79,0.62-1.48,1.11-2.06c0.49-0.59,1.1-1.05,1.83-1.39     c0.73-0.34,1.57-0.51,2.51-0.51c0.64,0,1.25,0.09,1.83,0.26c0.58,0.17,1.09,0.43,1.54,0.76c0.45,0.33,0.82,0.75,1.12,1.25     c0.3,0.5,0.5,1.08,0.59,1.74h-1.64C347.99,134.56,347.58,133.9,346.96,133.46z"></path>			<path class="st4" d="M353.18,131.72v5.3h6.49v-5.3h1.64v12.33h-1.64v-5.65h-6.49v5.65h-1.64v-12.33H353.18z"></path>			<path class="st4" d="M368.74,131.72l4.82,12.33h-1.81l-1.35-3.71h-5.21l-1.38,3.71h-1.67l4.8-12.33H368.74z M369.87,138.95     l-2.05-5.75h-0.03l-2.09,5.75H369.87z"></path>			<path class="st4" d="M376.61,131.72l3.88,10.36l3.9-10.36h2.24v12.33h-1.55v-10.26h-0.03l-3.85,10.26h-1.4l-3.85-10.26h-0.03     v10.26h-1.55v-12.33H376.61z"></path>			<path class="st4" d="M394.34,131.72c1.24,0,2.18,0.32,2.82,0.96c0.64,0.64,0.96,1.53,0.96,2.68c0,1.15-0.32,2.05-0.96,2.69     c-0.64,0.64-1.58,0.96-2.82,0.95h-3.76v5.04h-1.64v-12.33H394.34z M393.79,137.62c0.93,0.01,1.61-0.18,2.05-0.57     c0.43-0.39,0.65-0.96,0.65-1.69c0-0.74-0.22-1.3-0.65-1.68c-0.43-0.39-1.11-0.58-2.05-0.58h-3.21v4.52H393.79z"></path>			<path class="st4" d="M401.4,131.72v12.33h-1.64v-12.33H401.4z"></path>			<path class="st4" d="M403.41,135.46c0.25-0.78,0.62-1.46,1.11-2.06c0.5-0.6,1.11-1.08,1.85-1.43c0.74-0.36,1.59-0.54,2.57-0.54     c0.98,0,1.83,0.18,2.57,0.54c0.74,0.36,1.35,0.83,1.85,1.43c0.49,0.6,0.87,1.29,1.11,2.06c0.25,0.78,0.37,1.59,0.37,2.43     c0,0.84-0.12,1.65-0.37,2.43c-0.25,0.78-0.62,1.46-1.11,2.06c-0.5,0.6-1.11,1.07-1.85,1.42c-0.74,0.35-1.59,0.53-2.57,0.53     c-0.98,0-1.84-0.18-2.57-0.53c-0.74-0.35-1.35-0.83-1.85-1.42c-0.5-0.6-0.87-1.29-1.11-2.06c-0.25-0.78-0.37-1.59-0.37-2.43     C403.04,137.04,403.17,136.23,403.41,135.46z M404.92,139.72c0.16,0.6,0.41,1.15,0.76,1.63c0.35,0.48,0.79,0.87,1.33,1.17     c0.54,0.29,1.19,0.44,1.93,0.44c0.75,0,1.39-0.15,1.93-0.44c0.54-0.29,0.98-0.68,1.33-1.17c0.35-0.48,0.6-1.03,0.76-1.63     c0.16-0.6,0.24-1.22,0.24-1.84c0-0.62-0.08-1.23-0.24-1.84c-0.16-0.6-0.41-1.15-0.76-1.63c-0.34-0.48-0.79-0.87-1.33-1.17     c-0.54-0.29-1.19-0.44-1.93-0.44c-0.75,0-1.39,0.15-1.93,0.44c-0.54,0.29-0.98,0.68-1.33,1.17c-0.35,0.48-0.6,1.03-0.76,1.63     c-0.16,0.6-0.24,1.22-0.24,1.84C404.68,138.5,404.76,139.12,404.92,139.72z"></path>			<path class="st4" d="M418.15,131.72l6.49,10h0.03v-10h1.55v12.33h-1.8l-6.44-9.89h-0.03v9.89h-1.55v-12.33H418.15z"></path>			<path class="st4" d="M434.63,133.4c-0.55-0.4-1.25-0.6-2.1-0.6c-0.35,0-0.69,0.04-1.02,0.1c-0.33,0.07-0.63,0.18-0.89,0.35     c-0.26,0.16-0.47,0.38-0.62,0.65c-0.16,0.27-0.23,0.61-0.23,1.01c0,0.38,0.11,0.69,0.34,0.92c0.22,0.24,0.52,0.43,0.9,0.58     c0.37,0.15,0.8,0.27,1.27,0.37c0.47,0.1,0.95,0.2,1.44,0.32c0.49,0.12,0.97,0.25,1.44,0.41c0.47,0.16,0.89,0.37,1.27,0.63     c0.37,0.26,0.67,0.6,0.9,1c0.22,0.4,0.34,0.91,0.34,1.52c0,0.66-0.15,1.22-0.44,1.68c-0.29,0.47-0.67,0.85-1.13,1.14     c-0.46,0.29-0.98,0.51-1.55,0.64c-0.57,0.13-1.14,0.2-1.7,0.2c-0.69,0-1.34-0.09-1.96-0.26c-0.62-0.17-1.16-0.43-1.62-0.79     c-0.47-0.35-0.84-0.8-1.1-1.35c-0.27-0.55-0.41-1.19-0.41-1.94h1.55c0,0.52,0.1,0.96,0.3,1.34c0.2,0.37,0.47,0.68,0.79,0.92     c0.33,0.24,0.71,0.42,1.15,0.54s0.89,0.17,1.35,0.17c0.37,0,0.74-0.03,1.11-0.1c0.37-0.07,0.71-0.19,1.01-0.35     c0.3-0.17,0.54-0.39,0.72-0.68c0.18-0.29,0.28-0.66,0.28-1.1c0-0.43-0.11-0.77-0.34-1.04c-0.22-0.26-0.52-0.48-0.9-0.65     c-0.37-0.17-0.8-0.3-1.27-0.41c-0.47-0.1-0.95-0.21-1.44-0.32c-0.49-0.11-0.97-0.24-1.44-0.38c-0.47-0.14-0.9-0.33-1.27-0.57     c-0.37-0.24-0.67-0.54-0.9-0.92c-0.22-0.37-0.34-0.84-0.34-1.41c0-0.62,0.13-1.16,0.38-1.61c0.25-0.46,0.59-0.83,1.01-1.12     c0.42-0.29,0.9-0.51,1.43-0.66c0.54-0.14,1.08-0.21,1.65-0.21c0.63,0,1.22,0.07,1.76,0.22c0.54,0.15,1.02,0.38,1.42,0.71     c0.41,0.32,0.73,0.73,0.97,1.22c0.24,0.49,0.37,1.07,0.39,1.75h-1.55C435.5,134.44,435.18,133.8,434.63,133.4z"></path>		</g>		<g>			<path class="st2" d="M444.16,17.61l0.3-1.4h6.34l-0.3,1.4h-2.28l-1.3,6.19h-1.68l1.3-6.19H444.16z"></path>			<path class="st2" d="M453.43,16.21l0.59,5.5h0.02l2.93-5.5h2.33l-1.61,7.6h-1.56l1.38-6.04h-0.02l-3.21,6.04H453l-0.73-6.04     h-0.02l-1.14,6.04h-1.58l1.6-7.6H453.43z"></path>		</g>	</g></g></svg>